<mxfile host="Electron" modified="2024-08-21T20:36:22.699Z" agent="Mozilla/5.0 (Windows NT 10.0; Win64; x64) AppleWebKit/537.36 (KHTML, like Gecko) draw.io/24.2.5 Chrome/120.0.6099.109 Electron/28.1.0 Safari/537.36" etag="iqUluaI4RfakzkBUduGq" version="24.2.5" type="device">
  <diagram id="C5RBs43oDa-KdzZeNtuy" name="Page-1">
    <mxGraphModel dx="2022" dy="697" grid="1" gridSize="10" guides="1" tooltips="1" connect="1" arrows="1" fold="1" page="1" pageScale="1" pageWidth="827" pageHeight="1169" math="0" shadow="0">
      <root>
        <mxCell id="WIyWlLk6GJQsqaUBKTNV-0" />
        <mxCell id="WIyWlLk6GJQsqaUBKTNV-1" parent="WIyWlLk6GJQsqaUBKTNV-0" />
        <mxCell id="zkfFHV4jXpPFQw0GAbJ--0" value="Emprestimo" style="swimlane;fontStyle=2;align=center;verticalAlign=top;childLayout=stackLayout;horizontal=1;startSize=26;horizontalStack=0;resizeParent=1;resizeLast=0;collapsible=1;marginBottom=0;rounded=0;shadow=0;strokeWidth=1;" parent="WIyWlLk6GJQsqaUBKTNV-1" vertex="1">
          <mxGeometry x="330" y="144" width="290" height="270" as="geometry">
            <mxRectangle x="230" y="140" width="160" height="26" as="alternateBounds" />
          </mxGeometry>
        </mxCell>
        <mxCell id="zkfFHV4jXpPFQw0GAbJ--1" value="+ id : int" style="text;align=left;verticalAlign=top;spacingLeft=4;spacingRight=4;overflow=hidden;rotatable=0;points=[[0,0.5],[1,0.5]];portConstraint=eastwest;" parent="zkfFHV4jXpPFQw0GAbJ--0" vertex="1">
          <mxGeometry y="26" width="290" height="26" as="geometry" />
        </mxCell>
        <mxCell id="zkfFHV4jXpPFQw0GAbJ--2" value="+ cliente : Cliente" style="text;align=left;verticalAlign=top;spacingLeft=4;spacingRight=4;overflow=hidden;rotatable=0;points=[[0,0.5],[1,0.5]];portConstraint=eastwest;rounded=0;shadow=0;html=0;" parent="zkfFHV4jXpPFQw0GAbJ--0" vertex="1">
          <mxGeometry y="52" width="290" height="26" as="geometry" />
        </mxCell>
        <mxCell id="zkfFHV4jXpPFQw0GAbJ--3" value="+ formaDePagamento : FormaDePagamento" style="text;align=left;verticalAlign=top;spacingLeft=4;spacingRight=4;overflow=hidden;rotatable=0;points=[[0,0.5],[1,0.5]];portConstraint=eastwest;rounded=0;shadow=0;html=0;" parent="zkfFHV4jXpPFQw0GAbJ--0" vertex="1">
          <mxGeometry y="78" width="290" height="26" as="geometry" />
        </mxCell>
        <mxCell id="FDm9K9OgZXYlGnzYdE6Z-0" value="+ dataHora : string" style="text;align=left;verticalAlign=top;spacingLeft=4;spacingRight=4;overflow=hidden;rotatable=0;points=[[0,0.5],[1,0.5]];portConstraint=eastwest;" parent="zkfFHV4jXpPFQw0GAbJ--0" vertex="1">
          <mxGeometry y="104" width="290" height="26" as="geometry" />
        </mxCell>
        <mxCell id="zkfFHV4jXpPFQw0GAbJ--5" value="+ valorEmprestimo : float&#xa;" style="text;align=left;verticalAlign=top;spacingLeft=4;spacingRight=4;overflow=hidden;rotatable=0;points=[[0,0.5],[1,0.5]];portConstraint=eastwest;" parent="zkfFHV4jXpPFQw0GAbJ--0" vertex="1">
          <mxGeometry y="130" width="290" height="26" as="geometry" />
        </mxCell>
        <mxCell id="xhmtxkkdUhrxXhgRXGaF-22" value="+ valorComJuros: float&#xa;" style="text;align=left;verticalAlign=top;spacingLeft=4;spacingRight=4;overflow=hidden;rotatable=0;points=[[0,0.5],[1,0.5]];portConstraint=eastwest;" vertex="1" parent="zkfFHV4jXpPFQw0GAbJ--0">
          <mxGeometry y="156" width="290" height="26" as="geometry" />
        </mxCell>
        <mxCell id="zfqGbD3eHQCys-1M-Mq3-1" value="" style="line;strokeWidth=2;html=1;" parent="zkfFHV4jXpPFQw0GAbJ--0" vertex="1">
          <mxGeometry y="182" width="290" height="10" as="geometry" />
        </mxCell>
        <mxCell id="xhmtxkkdUhrxXhgRXGaF-24" value="- calcularValorComJuros() : void" style="text;align=left;verticalAlign=top;spacingLeft=4;spacingRight=4;overflow=hidden;rotatable=0;points=[[0,0.5],[1,0.5]];portConstraint=eastwest;" vertex="1" parent="zkfFHV4jXpPFQw0GAbJ--0">
          <mxGeometry y="192" width="290" height="26" as="geometry" />
        </mxCell>
        <mxCell id="zfqGbD3eHQCys-1M-Mq3-2" value="+ of(EmprestimoDTO) : Emprestimo" style="text;align=left;verticalAlign=top;spacingLeft=4;spacingRight=4;overflow=hidden;rotatable=0;points=[[0,0.5],[1,0.5]];portConstraint=eastwest;" parent="zkfFHV4jXpPFQw0GAbJ--0" vertex="1">
          <mxGeometry y="218" width="290" height="26" as="geometry" />
        </mxCell>
        <mxCell id="xhmtxkkdUhrxXhgRXGaF-23" value="+ calcularParcelas() : Parcela[]" style="text;align=left;verticalAlign=top;spacingLeft=4;spacingRight=4;overflow=hidden;rotatable=0;points=[[0,0.5],[1,0.5]];portConstraint=eastwest;" vertex="1" parent="zkfFHV4jXpPFQw0GAbJ--0">
          <mxGeometry y="244" width="290" height="26" as="geometry" />
        </mxCell>
        <mxCell id="V_WYXQO6eJnQUCukjR7P-0" style="edgeStyle=orthogonalEdgeStyle;rounded=0;orthogonalLoop=1;jettySize=auto;html=1;endArrow=block;endFill=0;endSize=10;" parent="WIyWlLk6GJQsqaUBKTNV-1" source="FDm9K9OgZXYlGnzYdE6Z-1" target="FDm9K9OgZXYlGnzYdE6Z-13" edge="1">
          <mxGeometry relative="1" as="geometry" />
        </mxCell>
        <mxCell id="V_WYXQO6eJnQUCukjR7P-3" style="edgeStyle=orthogonalEdgeStyle;rounded=0;orthogonalLoop=1;jettySize=auto;html=1;endSize=10;" parent="WIyWlLk6GJQsqaUBKTNV-1" source="FDm9K9OgZXYlGnzYdE6Z-1" target="FDm9K9OgZXYlGnzYdE6Z-37" edge="1">
          <mxGeometry relative="1" as="geometry" />
        </mxCell>
        <mxCell id="FDm9K9OgZXYlGnzYdE6Z-1" value="EmprestimoController" style="swimlane;fontStyle=0;childLayout=stackLayout;horizontal=1;startSize=30;horizontalStack=0;resizeParent=1;resizeParentMax=0;resizeLast=0;collapsible=1;marginBottom=0;whiteSpace=wrap;html=1;" parent="WIyWlLk6GJQsqaUBKTNV-1" vertex="1">
          <mxGeometry x="11" y="481" width="230" height="118" as="geometry" />
        </mxCell>
        <mxCell id="FDm9K9OgZXYlGnzYdE6Z-5" value="" style="line;strokeWidth=2;html=1;" parent="FDm9K9OgZXYlGnzYdE6Z-1" vertex="1">
          <mxGeometry y="30" width="230" height="10" as="geometry" />
        </mxCell>
        <mxCell id="xhmtxkkdUhrxXhgRXGaF-9" value="+ adicionar(): void" style="text;align=left;verticalAlign=top;spacingLeft=4;spacingRight=4;overflow=hidden;rotatable=0;points=[[0,0.5],[1,0.5]];portConstraint=eastwest;" vertex="1" parent="FDm9K9OgZXYlGnzYdE6Z-1">
          <mxGeometry y="40" width="230" height="26" as="geometry" />
        </mxCell>
        <mxCell id="xhmtxkkdUhrxXhgRXGaF-10" value="+ buscarRelatorio(): void" style="text;align=left;verticalAlign=top;spacingLeft=4;spacingRight=4;overflow=hidden;rotatable=0;points=[[0,0.5],[1,0.5]];portConstraint=eastwest;" vertex="1" parent="FDm9K9OgZXYlGnzYdE6Z-1">
          <mxGeometry y="66" width="230" height="26" as="geometry" />
        </mxCell>
        <mxCell id="xhmtxkkdUhrxXhgRXGaF-11" value="+ simular(): void" style="text;align=left;verticalAlign=top;spacingLeft=4;spacingRight=4;overflow=hidden;rotatable=0;points=[[0,0.5],[1,0.5]];portConstraint=eastwest;" vertex="1" parent="FDm9K9OgZXYlGnzYdE6Z-1">
          <mxGeometry y="92" width="230" height="26" as="geometry" />
        </mxCell>
        <mxCell id="FDm9K9OgZXYlGnzYdE6Z-13" value="&lt;&lt;abstract&gt;&gt;&#xa;Controller" style="swimlane;fontStyle=2;align=center;verticalAlign=top;childLayout=stackLayout;horizontal=1;startSize=40;horizontalStack=0;resizeParent=1;resizeLast=0;collapsible=1;marginBottom=0;rounded=0;shadow=0;strokeWidth=1;" parent="WIyWlLk6GJQsqaUBKTNV-1" vertex="1">
          <mxGeometry x="11" y="640" width="230" height="180" as="geometry">
            <mxRectangle x="230" y="140" width="160" height="26" as="alternateBounds" />
          </mxGeometry>
        </mxCell>
        <mxCell id="FDm9K9OgZXYlGnzYdE6Z-14" value="# view" style="text;align=left;verticalAlign=top;spacingLeft=4;spacingRight=4;overflow=hidden;rotatable=0;points=[[0,0.5],[1,0.5]];portConstraint=eastwest;" parent="FDm9K9OgZXYlGnzYdE6Z-13" vertex="1">
          <mxGeometry y="40" width="230" height="26" as="geometry" />
        </mxCell>
        <mxCell id="FDm9K9OgZXYlGnzYdE6Z-15" value="# repository" style="text;align=left;verticalAlign=top;spacingLeft=4;spacingRight=4;overflow=hidden;rotatable=0;points=[[0,0.5],[1,0.5]];portConstraint=eastwest;rounded=0;shadow=0;html=0;" parent="FDm9K9OgZXYlGnzYdE6Z-13" vertex="1">
          <mxGeometry y="66" width="230" height="26" as="geometry" />
        </mxCell>
        <mxCell id="FDm9K9OgZXYlGnzYdE6Z-20" value="" style="line;strokeWidth=2;html=1;" parent="FDm9K9OgZXYlGnzYdE6Z-13" vertex="1">
          <mxGeometry y="92" width="230" height="10" as="geometry" />
        </mxCell>
        <mxCell id="FDm9K9OgZXYlGnzYdE6Z-17" value="+ buscarPeloId(): void" style="text;align=left;verticalAlign=top;spacingLeft=4;spacingRight=4;overflow=hidden;rotatable=0;points=[[0,0.5],[1,0.5]];portConstraint=eastwest;" parent="FDm9K9OgZXYlGnzYdE6Z-13" vertex="1">
          <mxGeometry y="102" width="230" height="26" as="geometry" />
        </mxCell>
        <mxCell id="FDm9K9OgZXYlGnzYdE6Z-18" value="+ buscarTodos(): void" style="text;align=left;verticalAlign=top;spacingLeft=4;spacingRight=4;overflow=hidden;rotatable=0;points=[[0,0.5],[1,0.5]];portConstraint=eastwest;" parent="FDm9K9OgZXYlGnzYdE6Z-13" vertex="1">
          <mxGeometry y="128" width="230" height="26" as="geometry" />
        </mxCell>
        <mxCell id="FDm9K9OgZXYlGnzYdE6Z-21" value="+ adicionar(): void" style="text;align=left;verticalAlign=top;spacingLeft=4;spacingRight=4;overflow=hidden;rotatable=0;points=[[0,0.5],[1,0.5]];portConstraint=eastwest;" parent="FDm9K9OgZXYlGnzYdE6Z-13" vertex="1">
          <mxGeometry y="154" width="230" height="26" as="geometry" />
        </mxCell>
        <mxCell id="FDm9K9OgZXYlGnzYdE6Z-26" value="&lt;&lt;abstract&gt;&gt;&#xa;View" style="swimlane;fontStyle=2;align=center;verticalAlign=top;childLayout=stackLayout;horizontal=1;startSize=40;horizontalStack=0;resizeParent=1;resizeLast=0;collapsible=1;marginBottom=0;rounded=0;shadow=0;strokeWidth=1;" parent="WIyWlLk6GJQsqaUBKTNV-1" vertex="1">
          <mxGeometry x="-300" y="194" width="230" height="310" as="geometry">
            <mxRectangle x="230" y="140" width="160" height="26" as="alternateBounds" />
          </mxGeometry>
        </mxCell>
        <mxCell id="FDm9K9OgZXYlGnzYdE6Z-27" value="# req : HttpRequest" style="text;align=left;verticalAlign=top;spacingLeft=4;spacingRight=4;overflow=hidden;rotatable=0;points=[[0,0.5],[1,0.5]];portConstraint=eastwest;" parent="FDm9K9OgZXYlGnzYdE6Z-26" vertex="1">
          <mxGeometry y="40" width="230" height="26" as="geometry" />
        </mxCell>
        <mxCell id="FDm9K9OgZXYlGnzYdE6Z-28" value="# res : HttpResponse" style="text;align=left;verticalAlign=top;spacingLeft=4;spacingRight=4;overflow=hidden;rotatable=0;points=[[0,0.5],[1,0.5]];portConstraint=eastwest;rounded=0;shadow=0;html=0;" parent="FDm9K9OgZXYlGnzYdE6Z-26" vertex="1">
          <mxGeometry y="66" width="230" height="26" as="geometry" />
        </mxCell>
        <mxCell id="FDm9K9OgZXYlGnzYdE6Z-30" value="" style="line;strokeWidth=2;html=1;" parent="FDm9K9OgZXYlGnzYdE6Z-26" vertex="1">
          <mxGeometry y="92" width="230" height="10" as="geometry" />
        </mxCell>
        <mxCell id="FDm9K9OgZXYlGnzYdE6Z-33" value="+ readParam(): string" style="text;align=left;verticalAlign=top;spacingLeft=4;spacingRight=4;overflow=hidden;rotatable=0;points=[[0,0.5],[1,0.5]];portConstraint=eastwest;" parent="FDm9K9OgZXYlGnzYdE6Z-26" vertex="1">
          <mxGeometry y="102" width="230" height="26" as="geometry" />
        </mxCell>
        <mxCell id="xhmtxkkdUhrxXhgRXGaF-0" value="+ readId(): string" style="text;align=left;verticalAlign=top;spacingLeft=4;spacingRight=4;overflow=hidden;rotatable=0;points=[[0,0.5],[1,0.5]];portConstraint=eastwest;" vertex="1" parent="FDm9K9OgZXYlGnzYdE6Z-26">
          <mxGeometry y="128" width="230" height="26" as="geometry" />
        </mxCell>
        <mxCell id="FDm9K9OgZXYlGnzYdE6Z-31" value="+ write(): void " style="text;align=left;verticalAlign=top;spacingLeft=4;spacingRight=4;overflow=hidden;rotatable=0;points=[[0,0.5],[1,0.5]];portConstraint=eastwest;" parent="FDm9K9OgZXYlGnzYdE6Z-26" vertex="1">
          <mxGeometry y="154" width="230" height="26" as="geometry" />
        </mxCell>
        <mxCell id="FDm9K9OgZXYlGnzYdE6Z-36" value="+ writeAll: void" style="text;align=left;verticalAlign=top;spacingLeft=4;spacingRight=4;overflow=hidden;rotatable=0;points=[[0,0.5],[1,0.5]];portConstraint=eastwest;" parent="FDm9K9OgZXYlGnzYdE6Z-26" vertex="1">
          <mxGeometry y="180" width="230" height="26" as="geometry" />
        </mxCell>
        <mxCell id="FDm9K9OgZXYlGnzYdE6Z-32" value="+ created(): void" style="text;align=left;verticalAlign=top;spacingLeft=4;spacingRight=4;overflow=hidden;rotatable=0;points=[[0,0.5],[1,0.5]];portConstraint=eastwest;" parent="FDm9K9OgZXYlGnzYdE6Z-26" vertex="1">
          <mxGeometry y="206" width="230" height="26" as="geometry" />
        </mxCell>
        <mxCell id="xhmtxkkdUhrxXhgRXGaF-1" value="+ noContent(): void" style="text;align=left;verticalAlign=top;spacingLeft=4;spacingRight=4;overflow=hidden;rotatable=0;points=[[0,0.5],[1,0.5]];portConstraint=eastwest;" vertex="1" parent="FDm9K9OgZXYlGnzYdE6Z-26">
          <mxGeometry y="232" width="230" height="26" as="geometry" />
        </mxCell>
        <mxCell id="FDm9K9OgZXYlGnzYdE6Z-34" value="+ notFound(): void" style="text;align=left;verticalAlign=top;spacingLeft=4;spacingRight=4;overflow=hidden;rotatable=0;points=[[0,0.5],[1,0.5]];portConstraint=eastwest;" parent="FDm9K9OgZXYlGnzYdE6Z-26" vertex="1">
          <mxGeometry y="258" width="230" height="26" as="geometry" />
        </mxCell>
        <mxCell id="FDm9K9OgZXYlGnzYdE6Z-35" value="+ error(): void" style="text;align=left;verticalAlign=top;spacingLeft=4;spacingRight=4;overflow=hidden;rotatable=0;points=[[0,0.5],[1,0.5]];portConstraint=eastwest;" parent="FDm9K9OgZXYlGnzYdE6Z-26" vertex="1">
          <mxGeometry y="284" width="230" height="26" as="geometry" />
        </mxCell>
        <mxCell id="FDm9K9OgZXYlGnzYdE6Z-37" value="EmprestimoView" style="swimlane;fontStyle=0;childLayout=stackLayout;horizontal=1;startSize=30;horizontalStack=0;resizeParent=1;resizeParentMax=0;resizeLast=0;collapsible=1;marginBottom=0;whiteSpace=wrap;html=1;" parent="WIyWlLk6GJQsqaUBKTNV-1" vertex="1">
          <mxGeometry x="12" y="290" width="229" height="118" as="geometry" />
        </mxCell>
        <mxCell id="FDm9K9OgZXYlGnzYdE6Z-38" value="" style="line;strokeWidth=2;html=1;" parent="FDm9K9OgZXYlGnzYdE6Z-37" vertex="1">
          <mxGeometry y="30" width="229" height="10" as="geometry" />
        </mxCell>
        <mxCell id="zfqGbD3eHQCys-1M-Mq3-0" value="+ read(): EmprestimoDTO" style="text;align=left;verticalAlign=top;spacingLeft=4;spacingRight=4;overflow=hidden;rotatable=0;points=[[0,0.5],[1,0.5]];portConstraint=eastwest;" parent="FDm9K9OgZXYlGnzYdE6Z-37" vertex="1">
          <mxGeometry y="40" width="229" height="26" as="geometry" />
        </mxCell>
        <mxCell id="xhmtxkkdUhrxXhgRXGaF-4" value="+ readSimular(): SimularDTO" style="text;align=left;verticalAlign=top;spacingLeft=4;spacingRight=4;overflow=hidden;rotatable=0;points=[[0,0.5],[1,0.5]];portConstraint=eastwest;" vertex="1" parent="FDm9K9OgZXYlGnzYdE6Z-37">
          <mxGeometry y="66" width="229" height="26" as="geometry" />
        </mxCell>
        <mxCell id="xhmtxkkdUhrxXhgRXGaF-6" value="+ readPeriodo(): array" style="text;align=left;verticalAlign=top;spacingLeft=4;spacingRight=4;overflow=hidden;rotatable=0;points=[[0,0.5],[1,0.5]];portConstraint=eastwest;" vertex="1" parent="FDm9K9OgZXYlGnzYdE6Z-37">
          <mxGeometry y="92" width="229" height="26" as="geometry" />
        </mxCell>
        <mxCell id="FDm9K9OgZXYlGnzYdE6Z-40" value="&lt;&lt;interface&gt;&gt;&#xa;EmprestimoRepository" style="swimlane;fontStyle=2;align=center;verticalAlign=top;childLayout=stackLayout;horizontal=1;startSize=40;horizontalStack=0;resizeParent=1;resizeLast=0;collapsible=1;marginBottom=0;rounded=0;shadow=0;strokeWidth=1;" parent="WIyWlLk6GJQsqaUBKTNV-1" vertex="1">
          <mxGeometry x="350" y="670" width="250" height="154" as="geometry">
            <mxRectangle x="230" y="140" width="160" height="26" as="alternateBounds" />
          </mxGeometry>
        </mxCell>
        <mxCell id="FDm9K9OgZXYlGnzYdE6Z-43" value="" style="line;strokeWidth=2;html=1;" parent="FDm9K9OgZXYlGnzYdE6Z-40" vertex="1">
          <mxGeometry y="40" width="250" height="10" as="geometry" />
        </mxCell>
        <mxCell id="FDm9K9OgZXYlGnzYdE6Z-44" value="+ buscarTodos(): array" style="text;align=left;verticalAlign=top;spacingLeft=4;spacingRight=4;overflow=hidden;rotatable=0;points=[[0,0.5],[1,0.5]];portConstraint=eastwest;" parent="FDm9K9OgZXYlGnzYdE6Z-40" vertex="1">
          <mxGeometry y="50" width="250" height="26" as="geometry" />
        </mxCell>
        <mxCell id="xhmtxkkdUhrxXhgRXGaF-16" value="+ buscarRelatorio(array): array" style="text;align=left;verticalAlign=top;spacingLeft=4;spacingRight=4;overflow=hidden;rotatable=0;points=[[0,0.5],[1,0.5]];portConstraint=eastwest;" vertex="1" parent="FDm9K9OgZXYlGnzYdE6Z-40">
          <mxGeometry y="76" width="250" height="26" as="geometry" />
        </mxCell>
        <mxCell id="FDm9K9OgZXYlGnzYdE6Z-45" value="+ buscarPeloId(string): Emprestimo|false" style="text;align=left;verticalAlign=top;spacingLeft=4;spacingRight=4;overflow=hidden;rotatable=0;points=[[0,0.5],[1,0.5]];portConstraint=eastwest;" parent="FDm9K9OgZXYlGnzYdE6Z-40" vertex="1">
          <mxGeometry y="102" width="250" height="26" as="geometry" />
        </mxCell>
        <mxCell id="FDm9K9OgZXYlGnzYdE6Z-46" value="+ adicionar(EmprestimoDTO): Emprestimo" style="text;align=left;verticalAlign=top;spacingLeft=4;spacingRight=4;overflow=hidden;rotatable=0;points=[[0,0.5],[1,0.5]];portConstraint=eastwest;" parent="FDm9K9OgZXYlGnzYdE6Z-40" vertex="1">
          <mxGeometry y="128" width="250" height="26" as="geometry" />
        </mxCell>
        <mxCell id="FDm9K9OgZXYlGnzYdE6Z-50" value="EmprestimoRepositoryBDR" style="swimlane;fontStyle=2;align=center;verticalAlign=top;childLayout=stackLayout;horizontal=1;startSize=30;horizontalStack=0;resizeParent=1;resizeLast=0;collapsible=1;marginBottom=0;rounded=0;shadow=0;strokeWidth=1;" parent="WIyWlLk6GJQsqaUBKTNV-1" vertex="1">
          <mxGeometry x="300" y="452.5" width="350" height="175" as="geometry">
            <mxRectangle x="230" y="140" width="160" height="26" as="alternateBounds" />
          </mxGeometry>
        </mxCell>
        <mxCell id="FDm9K9OgZXYlGnzYdE6Z-51" value="- pdo : PDO" style="text;align=left;verticalAlign=top;spacingLeft=4;spacingRight=4;overflow=hidden;rotatable=0;points=[[0,0.5],[1,0.5]];portConstraint=eastwest;" parent="FDm9K9OgZXYlGnzYdE6Z-50" vertex="1">
          <mxGeometry y="30" width="350" height="26" as="geometry" />
        </mxCell>
        <mxCell id="FDm9K9OgZXYlGnzYdE6Z-54" value="" style="line;strokeWidth=2;html=1;" parent="FDm9K9OgZXYlGnzYdE6Z-50" vertex="1">
          <mxGeometry y="56" width="350" height="10" as="geometry" />
        </mxCell>
        <mxCell id="xhmtxkkdUhrxXhgRXGaF-17" value="+ buscarTodos(): array" style="text;align=left;verticalAlign=top;spacingLeft=4;spacingRight=4;overflow=hidden;rotatable=0;points=[[0,0.5],[1,0.5]];portConstraint=eastwest;" vertex="1" parent="FDm9K9OgZXYlGnzYdE6Z-50">
          <mxGeometry y="66" width="350" height="26" as="geometry" />
        </mxCell>
        <mxCell id="xhmtxkkdUhrxXhgRXGaF-18" value="+ buscarRelatorio(array): array" style="text;align=left;verticalAlign=top;spacingLeft=4;spacingRight=4;overflow=hidden;rotatable=0;points=[[0,0.5],[1,0.5]];portConstraint=eastwest;" vertex="1" parent="FDm9K9OgZXYlGnzYdE6Z-50">
          <mxGeometry y="92" width="350" height="26" as="geometry" />
        </mxCell>
        <mxCell id="xhmtxkkdUhrxXhgRXGaF-19" value="+ buscarPeloId(string): Emprestimo|false" style="text;align=left;verticalAlign=top;spacingLeft=4;spacingRight=4;overflow=hidden;rotatable=0;points=[[0,0.5],[1,0.5]];portConstraint=eastwest;" vertex="1" parent="FDm9K9OgZXYlGnzYdE6Z-50">
          <mxGeometry y="118" width="350" height="26" as="geometry" />
        </mxCell>
        <mxCell id="xhmtxkkdUhrxXhgRXGaF-20" value="+ adicionar(EmprestimoDTO): Emprestimo" style="text;align=left;verticalAlign=top;spacingLeft=4;spacingRight=4;overflow=hidden;rotatable=0;points=[[0,0.5],[1,0.5]];portConstraint=eastwest;" vertex="1" parent="FDm9K9OgZXYlGnzYdE6Z-50">
          <mxGeometry y="144" width="350" height="26" as="geometry" />
        </mxCell>
        <mxCell id="FDm9K9OgZXYlGnzYdE6Z-59" value="" style="endArrow=classic;html=1;rounded=0;endFill=1;startSize=20;sourcePerimeterSpacing=20;endSize=10;exitX=1;exitY=0.5;exitDx=0;exitDy=0;" parent="WIyWlLk6GJQsqaUBKTNV-1" source="FDm9K9OgZXYlGnzYdE6Z-1" target="FDm9K9OgZXYlGnzYdE6Z-50" edge="1">
          <mxGeometry width="50" height="50" relative="1" as="geometry">
            <mxPoint x="300" y="600" as="sourcePoint" />
            <mxPoint x="340" y="540" as="targetPoint" />
            <Array as="points" />
          </mxGeometry>
        </mxCell>
        <mxCell id="FDm9K9OgZXYlGnzYdE6Z-60" value="" style="endArrow=classic;html=1;rounded=0;endFill=1;startSize=20;sourcePerimeterSpacing=20;endSize=10;exitX=0.5;exitY=0;exitDx=0;exitDy=0;entryX=0.5;entryY=1;entryDx=0;entryDy=0;" parent="WIyWlLk6GJQsqaUBKTNV-1" source="FDm9K9OgZXYlGnzYdE6Z-50" target="zkfFHV4jXpPFQw0GAbJ--0" edge="1">
          <mxGeometry width="50" height="50" relative="1" as="geometry">
            <mxPoint x="254" y="320" as="sourcePoint" />
            <mxPoint x="604" y="260" as="targetPoint" />
            <Array as="points" />
          </mxGeometry>
        </mxCell>
        <mxCell id="FDm9K9OgZXYlGnzYdE6Z-62" value="" style="endArrow=block;html=1;rounded=0;endFill=0;startSize=20;sourcePerimeterSpacing=20;endSize=10;exitX=0.5;exitY=1;exitDx=0;exitDy=0;entryX=0.5;entryY=0;entryDx=0;entryDy=0;" parent="WIyWlLk6GJQsqaUBKTNV-1" source="FDm9K9OgZXYlGnzYdE6Z-50" target="FDm9K9OgZXYlGnzYdE6Z-40" edge="1">
          <mxGeometry width="50" height="50" relative="1" as="geometry">
            <mxPoint x="605" y="610" as="sourcePoint" />
            <mxPoint x="560" y="670" as="targetPoint" />
            <Array as="points" />
          </mxGeometry>
        </mxCell>
        <mxCell id="V_WYXQO6eJnQUCukjR7P-1" style="rounded=0;orthogonalLoop=1;jettySize=auto;html=1;endSize=10;endArrow=block;endFill=0;" parent="WIyWlLk6GJQsqaUBKTNV-1" source="FDm9K9OgZXYlGnzYdE6Z-37" target="FDm9K9OgZXYlGnzYdE6Z-26" edge="1">
          <mxGeometry relative="1" as="geometry" />
        </mxCell>
        <mxCell id="xhmtxkkdUhrxXhgRXGaF-2" value="&amp;lt;&amp;lt; implements &amp;gt;&amp;gt;" style="text;html=1;align=center;verticalAlign=middle;whiteSpace=wrap;rounded=0;fillColor=none;fontSize=10;" vertex="1" parent="WIyWlLk6GJQsqaUBKTNV-1">
          <mxGeometry x="464" y="630" width="110" height="30" as="geometry" />
        </mxCell>
        <mxCell id="xhmtxkkdUhrxXhgRXGaF-12" value="&amp;lt;&amp;lt; extends &amp;gt;&amp;gt;" style="text;html=1;align=center;verticalAlign=middle;whiteSpace=wrap;rounded=0;fillColor=none;fontSize=10;" vertex="1" parent="WIyWlLk6GJQsqaUBKTNV-1">
          <mxGeometry x="-77" y="326" width="110" height="30" as="geometry" />
        </mxCell>
        <mxCell id="xhmtxkkdUhrxXhgRXGaF-13" value="&amp;lt;&amp;lt; extends &amp;gt;&amp;gt;" style="text;html=1;align=center;verticalAlign=middle;whiteSpace=wrap;rounded=0;fillColor=none;fontSize=10;" vertex="1" parent="WIyWlLk6GJQsqaUBKTNV-1">
          <mxGeometry x="107" y="600" width="110" height="30" as="geometry" />
        </mxCell>
        <mxCell id="xhmtxkkdUhrxXhgRXGaF-14" value="usa" style="text;html=1;align=center;verticalAlign=middle;whiteSpace=wrap;rounded=0;fillColor=none;fontSize=10;" vertex="1" parent="WIyWlLk6GJQsqaUBKTNV-1">
          <mxGeometry x="90" y="430" width="40" height="30" as="geometry" />
        </mxCell>
        <mxCell id="xhmtxkkdUhrxXhgRXGaF-15" value="usa" style="text;html=1;align=center;verticalAlign=middle;whiteSpace=wrap;rounded=0;fillColor=none;fontSize=10;" vertex="1" parent="WIyWlLk6GJQsqaUBKTNV-1">
          <mxGeometry x="247" y="514" width="40" height="30" as="geometry" />
        </mxCell>
        <mxCell id="xhmtxkkdUhrxXhgRXGaF-21" value="usa" style="text;html=1;align=center;verticalAlign=middle;whiteSpace=wrap;rounded=0;fillColor=none;fontSize=10;" vertex="1" parent="WIyWlLk6GJQsqaUBKTNV-1">
          <mxGeometry x="472" y="420" width="40" height="30" as="geometry" />
        </mxCell>
      </root>
    </mxGraphModel>
  </diagram>
</mxfile>
